<svg id="Huguenots_mark" xmlns="http://www.w3.org/2000/svg" width="37.305" height="37.305" viewBox="0 0 37.305 37.305">
  <g id="Group_6710" data-name="Group 6710">
    <rect id="Rectangle_2748" data-name="Rectangle 2748" width="34.857" height="34.857" transform="translate(1.224 1.224)" fill="#004289"/>
    <path id="Path_1731" data-name="Path 1731" d="M37.3,37.3H0V0H37.3ZM2.447,34.857h32.41V2.447H2.447Z" fill="#004289"/>
  </g>
  <g id="Group_6711" data-name="Group 6711" transform="translate(1.259 1.224)">
    <rect id="Rectangle_2749" data-name="Rectangle 2749" width="11.258" height="11.258" transform="translate(0.524 0.524)" fill="#004289"/>
    <path id="Path_1732" data-name="Path 1732" d="M15.907,15.807H3.6V3.5H15.907ZM4.649,14.758H14.858V4.549H4.649Z" transform="translate(-3.6 -3.5)" fill="#fff"/>
  </g>
  <g id="Group_6712" data-name="Group 6712" transform="translate(1.259 12.482)">
    <rect id="Rectangle_2750" data-name="Rectangle 2750" width="11.258" height="11.258" transform="translate(0.524 0.524)" fill="#004289"/>
    <path id="Path_1733" data-name="Path 1733" d="M15.907,48.042H3.6V35.7H15.907ZM4.649,46.993H14.858V36.749H4.649Z" transform="translate(-3.6 -35.7)" fill="#fff"/>
  </g>
  <g id="Group_6713" data-name="Group 6713" transform="translate(1.259 23.774)">
    <rect id="Rectangle_2751" data-name="Rectangle 2751" width="11.258" height="11.258" transform="translate(0.524 0.524)" fill="#004289"/>
    <path id="Path_1734" data-name="Path 1734" d="M15.907,80.307H3.6V68H15.907ZM4.649,79.258H14.858V69.049H4.649Z" transform="translate(-3.6 -68)" fill="#fff"/>
  </g>
  <g id="Group_6714" data-name="Group 6714" transform="translate(12.516 12.482)">
    <rect id="Rectangle_2752" data-name="Rectangle 2752" width="11.258" height="11.258" transform="translate(0.524 0.524)" fill="#d0043c"/>
    <path id="Path_1735" data-name="Path 1735" d="M48.107,48.042H35.8V35.7H48.107ZM36.849,46.993H47.058V36.749H36.849Z" transform="translate(-35.8 -35.7)" fill="#fff"/>
  </g>
  <g id="Group_6715" data-name="Group 6715" transform="translate(23.774 1.224)">
    <rect id="Rectangle_2753" data-name="Rectangle 2753" width="11.258" height="11.258" transform="translate(0.524 0.524)" fill="#004289"/>
    <path id="Path_1736" data-name="Path 1736" d="M80.342,15.807H68V3.5H80.307V15.807ZM69.049,14.758H79.258V4.549H69.049Z" transform="translate(-68 -3.5)" fill="#fff"/>
  </g>
  <g id="Group_6716" data-name="Group 6716" transform="translate(23.774 12.482)">
    <rect id="Rectangle_2754" data-name="Rectangle 2754" width="11.258" height="11.258" transform="translate(0.524 0.524)" fill="#004289"/>
    <path id="Path_1737" data-name="Path 1737" d="M80.342,48.042H68V35.7H80.307V48.042ZM69.049,46.993H79.258V36.749H69.049Z" transform="translate(-68 -35.7)" fill="#fff"/>
  </g>
  <g id="Group_6717" data-name="Group 6717" transform="translate(23.774 23.774)">
    <rect id="Rectangle_2755" data-name="Rectangle 2755" width="11.258" height="11.258" transform="translate(0.524 0.524)" fill="#004289"/>
    <path id="Path_1738" data-name="Path 1738" d="M80.342,80.307H68V68H80.307V80.307ZM69.049,79.258H79.258V69.049H69.049Z" transform="translate(-68 -68)" fill="#fff"/>
  </g>
  <g id="Group_6718" data-name="Group 6718" transform="translate(12.516 1.224)">
    <rect id="Rectangle_2756" data-name="Rectangle 2756" width="11.258" height="11.258" transform="translate(0.524 0.524)" fill="#fff"/>
    <path id="Path_1739" data-name="Path 1739" d="M48.107,15.807H35.8V3.5H48.107ZM36.849,14.758H47.058V4.549H36.849Z" transform="translate(-35.8 -3.5)" fill="#fff"/>
  </g>
  <g id="Group_6719" data-name="Group 6719" transform="translate(12.516 23.774)">
    <rect id="Rectangle_2757" data-name="Rectangle 2757" width="11.258" height="11.258" transform="translate(0.524 0.524)" fill="#fff"/>
    <path id="Path_1740" data-name="Path 1740" d="M48.107,80.307H35.8V68H48.107ZM36.849,79.258H47.058V69.049H36.849Z" transform="translate(-35.8 -68)" fill="#fff"/>
  </g>
</svg>
